<?xml version="1.0" encoding="utf-8"?>
<!-- Generator: Adobe Illustrator 18.0.0, SVG Export Plug-In . SVG Version: 6.00 Build 0)  -->
<!DOCTYPE svg PUBLIC "-//W3C//DTD SVG 1.1//EN" "http://www.w3.org/Graphics/SVG/1.1/DTD/svg11.dtd">
<svg version="1.1" id="Layer_1" xmlns="http://www.w3.org/2000/svg" xmlns:xlink="http://www.w3.org/1999/xlink" x="0px" y="0px"
	 viewBox="0 0 283.5 496.1" enable-background="new 0 0 283.5 496.1" xml:space="preserve">
<g>
	<defs>
		<rect id="SVGID_1_" x="0" y="-17.5" width="283.5" height="531"/>
	</defs>
	<clipPath id="SVGID_2_">
		<use xlink:href="#SVGID_1_"  overflow="visible"/>
	</clipPath>
	<path clip-path="url(#SVGID_2_)" d="M166.7,128.4L48.7,10.4C41.1,2.8,30,0.6,20.2,4.7C10.4,8.8,4,18.3,4,28.8v438.3
		c0,10.7,6.4,20.2,16.2,24.3c3.3,1.3,6.6,2,10,2c6.8,0,13.5-2.7,18.5-7.7l118-118L47,248L166.7,128.4z M116.3,367.8l-76.7,76.8
		V291.1L116.3,367.8z M39.6,51.7l76.7,76.8l-76.7,76.6V51.7z"/>
	<path clip-path="url(#SVGID_2_)" d="M246.9,208.5l-24.2,24.2l15.3,15.3l-55.6,55.6l-55.6-55.6l46.8-46.8l-24.2-24.2l-71.1,71
		l104.1,104.1l92.1-92.1c6.6-6.6,6.6-17.3,0-23.9L246.9,208.5z"/>
	
		<rect x="165.2" y="151.1" transform="matrix(0.7071 -0.7071 0.7071 0.7071 -65.5832 178.2278)" clip-path="url(#SVGID_2_)" fill="#FFFFFF" width="34.3" height="34.3"/>
	
		<rect x="197.5" y="183.4" transform="matrix(0.7071 -0.7071 0.7071 0.7071 -78.9719 210.5519)" clip-path="url(#SVGID_2_)" fill="#FFFFFF" width="34.3" height="34.3"/>
</g>
</svg>
